<mxfile host="app.diagrams.net" modified="2024-04-13T01:37:05.645Z" agent="Mozilla/5.0 (Windows NT 10.0; Win64; x64) AppleWebKit/537.36 (KHTML, like Gecko) Chrome/123.0.0.0 Safari/537.36" etag="zMCYRpnRncKFZFG0JUou" version="24.2.3" type="github">
  <diagram name="Page-1" id="e7e014a7-5840-1c2e-5031-d8a46d1fe8dd">
    <mxGraphModel dx="903" dy="1387" grid="0" gridSize="10" guides="1" tooltips="1" connect="1" arrows="1" fold="1" page="1" pageScale="1" pageWidth="1169" pageHeight="826" background="none" math="0" shadow="0">
      <root>
        <mxCell id="0" />
        <mxCell id="1" parent="0" />
        <mxCell id="_Qwe62J3tgY_4_dlwT_e-44" style="edgeStyle=orthogonalEdgeStyle;rounded=0;orthogonalLoop=1;jettySize=auto;html=1;entryX=0;entryY=0.5;entryDx=0;entryDy=0;endArrow=none;endFill=0;" parent="1" source="_Qwe62J3tgY_4_dlwT_e-41" target="_Qwe62J3tgY_4_dlwT_e-42" edge="1">
          <mxGeometry relative="1" as="geometry" />
        </mxCell>
        <mxCell id="_Qwe62J3tgY_4_dlwT_e-41" value="Manager/Org" style="shape=umlActor;verticalLabelPosition=bottom;verticalAlign=top;html=1;outlineConnect=0;" parent="1" vertex="1">
          <mxGeometry x="245" y="525" width="30" height="60" as="geometry" />
        </mxCell>
        <mxCell id="_Qwe62J3tgY_4_dlwT_e-42" value="User" style="rounded=0;whiteSpace=wrap;html=1;" parent="1" vertex="1">
          <mxGeometry x="540.5" y="525" width="120" height="60" as="geometry" />
        </mxCell>
        <mxCell id="_Qwe62J3tgY_4_dlwT_e-46" value="&lt;font style=&quot;vertical-align: inherit;&quot;&gt;&lt;font style=&quot;vertical-align: inherit;&quot;&gt;&lt;font style=&quot;vertical-align: inherit;&quot;&gt;&lt;font style=&quot;vertical-align: inherit;&quot;&gt;&lt;font style=&quot;vertical-align: inherit;&quot;&gt;&lt;font style=&quot;vertical-align: inherit;&quot;&gt;&lt;font style=&quot;vertical-align: inherit;&quot;&gt;&lt;font style=&quot;vertical-align: inherit;&quot;&gt;&lt;font style=&quot;vertical-align: inherit;&quot;&gt;&lt;font style=&quot;vertical-align: inherit;&quot;&gt;1.1: requestPasswordReset(e-mail)&lt;/font&gt;&lt;/font&gt;&lt;/font&gt;&lt;/font&gt;&lt;/font&gt;&lt;/font&gt;&lt;/font&gt;&lt;/font&gt;&lt;/font&gt;&lt;/font&gt;" style="text;html=1;align=center;verticalAlign=middle;resizable=0;points=[];autosize=1;strokeColor=none;fillColor=none;" parent="1" vertex="1">
          <mxGeometry x="306" y="525" width="206" height="26" as="geometry" />
        </mxCell>
        <mxCell id="_Qwe62J3tgY_4_dlwT_e-50" style="edgeStyle=orthogonalEdgeStyle;rounded=0;orthogonalLoop=1;jettySize=auto;html=1;entryX=0;entryY=0.5;entryDx=0;entryDy=0;endArrow=blockThin;endFill=1;strokeWidth=1;" parent="1" edge="1">
          <mxGeometry relative="1" as="geometry">
            <mxPoint x="377.5" y="550" as="sourcePoint" />
            <mxPoint x="435.5" y="550" as="targetPoint" />
          </mxGeometry>
        </mxCell>
        <mxCell id="_Qwe62J3tgY_4_dlwT_e-52" value="&lt;h1 style=&quot;margin-top: 0px;&quot;&gt;&lt;font style=&quot;vertical-align: inherit;&quot;&gt;&lt;font style=&quot;vertical-align: inherit;&quot;&gt;&lt;font style=&quot;vertical-align: inherit;&quot;&gt;&lt;font style=&quot;vertical-align: inherit;&quot;&gt;Redefinir senha&lt;/font&gt;&lt;/font&gt;&lt;/font&gt;&lt;/font&gt;&lt;/h1&gt;" style="text;html=1;whiteSpace=wrap;overflow=hidden;rounded=0;" parent="1" vertex="1">
          <mxGeometry x="449" y="14" width="202" height="34" as="geometry" />
        </mxCell>
        <mxCell id="_Qwe62J3tgY_4_dlwT_e-63" style="edgeStyle=orthogonalEdgeStyle;rounded=0;orthogonalLoop=1;jettySize=auto;html=1;entryX=0;entryY=0.5;entryDx=0;entryDy=0;" parent="1" source="_Qwe62J3tgY_4_dlwT_e-54" target="_Qwe62J3tgY_4_dlwT_e-56" edge="1">
          <mxGeometry relative="1" as="geometry" />
        </mxCell>
        <mxCell id="_Qwe62J3tgY_4_dlwT_e-54" value="" style="ellipse;fillColor=strokeColor;html=1;" parent="1" vertex="1">
          <mxGeometry x="240" y="703" width="30" height="30" as="geometry" />
        </mxCell>
        <mxCell id="_Qwe62J3tgY_4_dlwT_e-64" style="edgeStyle=orthogonalEdgeStyle;rounded=0;orthogonalLoop=1;jettySize=auto;html=1;" parent="1" source="_Qwe62J3tgY_4_dlwT_e-56" target="_Qwe62J3tgY_4_dlwT_e-57" edge="1">
          <mxGeometry relative="1" as="geometry" />
        </mxCell>
        <mxCell id="_Qwe62J3tgY_4_dlwT_e-56" value="&lt;font style=&quot;vertical-align: inherit;&quot;&gt;&lt;font style=&quot;vertical-align: inherit;&quot;&gt;solicita a modificação de senha&lt;/font&gt;&lt;/font&gt;" style="rounded=1;whiteSpace=wrap;html=1;" parent="1" vertex="1">
          <mxGeometry x="314" y="688" width="120" height="60" as="geometry" />
        </mxCell>
        <mxCell id="T92NHJfHB5LPE4qswvep-6" style="edgeStyle=orthogonalEdgeStyle;rounded=0;orthogonalLoop=1;jettySize=auto;html=1;exitX=1;exitY=0.5;exitDx=0;exitDy=0;entryX=0;entryY=0.5;entryDx=0;entryDy=0;" edge="1" parent="1" source="_Qwe62J3tgY_4_dlwT_e-57" target="T92NHJfHB5LPE4qswvep-5">
          <mxGeometry relative="1" as="geometry" />
        </mxCell>
        <mxCell id="_Qwe62J3tgY_4_dlwT_e-57" value="&lt;font style=&quot;vertical-align: inherit;&quot;&gt;&lt;font style=&quot;vertical-align: inherit;&quot;&gt;insere o email&lt;/font&gt;&lt;/font&gt;" style="rounded=1;whiteSpace=wrap;html=1;" parent="1" vertex="1">
          <mxGeometry x="467" y="688" width="120" height="60" as="geometry" />
        </mxCell>
        <mxCell id="T92NHJfHB5LPE4qswvep-41" style="edgeStyle=orthogonalEdgeStyle;rounded=0;orthogonalLoop=1;jettySize=auto;html=1;entryX=0;entryY=0.5;entryDx=0;entryDy=0;" edge="1" parent="1" source="T92NHJfHB5LPE4qswvep-5" target="T92NHJfHB5LPE4qswvep-40">
          <mxGeometry relative="1" as="geometry" />
        </mxCell>
        <mxCell id="T92NHJfHB5LPE4qswvep-5" value="&lt;font style=&quot;vertical-align: inherit;&quot;&gt;&lt;font style=&quot;vertical-align: inherit;&quot;&gt;recebe o código de validação&lt;/font&gt;&lt;/font&gt;" style="rounded=1;whiteSpace=wrap;html=1;" vertex="1" parent="1">
          <mxGeometry x="618" y="688" width="120" height="60" as="geometry" />
        </mxCell>
        <mxCell id="T92NHJfHB5LPE4qswvep-12" style="edgeStyle=orthogonalEdgeStyle;rounded=0;orthogonalLoop=1;jettySize=auto;html=1;exitX=0.986;exitY=0.622;exitDx=0;exitDy=0;exitPerimeter=0;" edge="1" parent="1">
          <mxGeometry relative="1" as="geometry">
            <mxPoint x="659.85" y="564.28" as="sourcePoint" />
            <mxPoint x="602" y="523" as="targetPoint" />
            <Array as="points">
              <mxPoint x="697" y="564" />
              <mxPoint x="697" y="491" />
              <mxPoint x="601" y="491" />
            </Array>
          </mxGeometry>
        </mxCell>
        <mxCell id="T92NHJfHB5LPE4qswvep-13" value="1.2: resetPassword(password&lt;span style=&quot;background-color: initial;&quot;&gt;, passwordConfirmation, verifyCode)&lt;/span&gt;" style="text;whiteSpace=wrap;html=1;" vertex="1" parent="1">
          <mxGeometry x="560" y="449" width="198" height="36" as="geometry" />
        </mxCell>
        <mxCell id="T92NHJfHB5LPE4qswvep-14" style="edgeStyle=orthogonalEdgeStyle;rounded=0;orthogonalLoop=1;jettySize=auto;html=1;entryX=1;entryY=0.5;entryDx=0;entryDy=0;" edge="1" parent="1" source="T92NHJfHB5LPE4qswvep-15" target="T92NHJfHB5LPE4qswvep-32">
          <mxGeometry relative="1" as="geometry" />
        </mxCell>
        <mxCell id="T92NHJfHB5LPE4qswvep-15" value="Org" style="swimlane;fontStyle=0;align=center;verticalAlign=top;childLayout=stackLayout;horizontal=1;startSize=26;horizontalStack=0;resizeParent=1;resizeLast=0;collapsible=1;marginBottom=0;rounded=0;shadow=0;strokeWidth=1;" vertex="1" parent="1">
          <mxGeometry x="746" y="-256" width="284.25" height="138" as="geometry">
            <mxRectangle x="340" y="380" width="170" height="26" as="alternateBounds" />
          </mxGeometry>
        </mxCell>
        <mxCell id="T92NHJfHB5LPE4qswvep-16" value="&lt;span style=&quot;background-color: rgb(255, 255, 255);&quot;&gt;- User: User&lt;/span&gt;" style="text;strokeColor=none;fillColor=none;align=left;verticalAlign=top;spacingLeft=4;spacingRight=4;overflow=hidden;rotatable=0;points=[[0,0.5],[1,0.5]];portConstraint=eastwest;whiteSpace=wrap;html=1;" vertex="1" parent="T92NHJfHB5LPE4qswvep-15">
          <mxGeometry y="26" width="284.25" height="26" as="geometry" />
        </mxCell>
        <mxCell id="T92NHJfHB5LPE4qswvep-17" value="-&amp;nbsp;ProcessingTax: BigDecimal" style="text;strokeColor=none;fillColor=none;align=left;verticalAlign=top;spacingLeft=4;spacingRight=4;overflow=hidden;rotatable=0;points=[[0,0.5],[1,0.5]];portConstraint=eastwest;whiteSpace=wrap;html=1;" vertex="1" parent="T92NHJfHB5LPE4qswvep-15">
          <mxGeometry y="52" width="284.25" height="26" as="geometry" />
        </mxCell>
        <mxCell id="T92NHJfHB5LPE4qswvep-18" value="" style="line;strokeWidth=1;fillColor=none;align=left;verticalAlign=middle;spacingTop=-1;spacingLeft=3;spacingRight=3;rotatable=0;labelPosition=right;points=[];portConstraint=eastwest;strokeColor=inherit;" vertex="1" parent="T92NHJfHB5LPE4qswvep-15">
          <mxGeometry y="78" width="284.25" height="8" as="geometry" />
        </mxCell>
        <mxCell id="T92NHJfHB5LPE4qswvep-19" value="+ RegisterProducer(Producer: Producer): Producer" style="text;strokeColor=none;fillColor=none;align=left;verticalAlign=top;spacingLeft=4;spacingRight=4;overflow=hidden;rotatable=0;points=[[0,0.5],[1,0.5]];portConstraint=eastwest;whiteSpace=wrap;html=1;" vertex="1" parent="T92NHJfHB5LPE4qswvep-15">
          <mxGeometry y="86" width="284.25" height="26" as="geometry" />
        </mxCell>
        <mxCell id="T92NHJfHB5LPE4qswvep-20" value="+ Register&lt;span style=&quot;text-align: center; text-wrap: nowrap;&quot;&gt;Manager(&lt;/span&gt;&lt;span style=&quot;text-align: center; text-wrap: nowrap;&quot;&gt;Manager:&amp;nbsp;&lt;/span&gt;&lt;span style=&quot;text-align: center; text-wrap: nowrap;&quot;&gt;Manager)&lt;/span&gt;&lt;span style=&quot;text-wrap: nowrap; text-align: center;&quot;&gt;:&amp;nbsp;&lt;/span&gt;&lt;span style=&quot;text-wrap: nowrap; text-align: center;&quot;&gt;Manager&lt;/span&gt;" style="text;strokeColor=none;fillColor=none;align=left;verticalAlign=top;spacingLeft=4;spacingRight=4;overflow=hidden;rotatable=0;points=[[0,0.5],[1,0.5]];portConstraint=eastwest;whiteSpace=wrap;html=1;" vertex="1" parent="T92NHJfHB5LPE4qswvep-15">
          <mxGeometry y="112" width="284.25" height="26" as="geometry" />
        </mxCell>
        <mxCell id="T92NHJfHB5LPE4qswvep-21" style="edgeStyle=orthogonalEdgeStyle;rounded=0;orthogonalLoop=1;jettySize=auto;html=1;" edge="1" parent="1" source="T92NHJfHB5LPE4qswvep-23" target="T92NHJfHB5LPE4qswvep-15">
          <mxGeometry relative="1" as="geometry" />
        </mxCell>
        <mxCell id="T92NHJfHB5LPE4qswvep-22" style="edgeStyle=orthogonalEdgeStyle;rounded=0;orthogonalLoop=1;jettySize=auto;html=1;" edge="1" parent="1" source="T92NHJfHB5LPE4qswvep-23" target="T92NHJfHB5LPE4qswvep-30">
          <mxGeometry relative="1" as="geometry" />
        </mxCell>
        <mxCell id="T92NHJfHB5LPE4qswvep-23" value="User" style="swimlane;fontStyle=1;align=center;verticalAlign=top;childLayout=stackLayout;horizontal=1;startSize=26;horizontalStack=0;resizeParent=1;resizeParentMax=0;resizeLast=0;collapsible=1;marginBottom=0;whiteSpace=wrap;html=1;labelBackgroundColor=none;" vertex="1" parent="1">
          <mxGeometry x="409" y="-269" width="293" height="164" as="geometry" />
        </mxCell>
        <mxCell id="T92NHJfHB5LPE4qswvep-24" value="-&amp;nbsp;Auth: Auth" style="text;strokeColor=none;fillColor=none;align=left;verticalAlign=top;spacingLeft=4;spacingRight=4;overflow=hidden;rotatable=0;points=[[0,0.5],[1,0.5]];portConstraint=eastwest;whiteSpace=wrap;html=1;labelBackgroundColor=none;" vertex="1" parent="T92NHJfHB5LPE4qswvep-23">
          <mxGeometry y="26" width="293" height="26" as="geometry" />
        </mxCell>
        <mxCell id="T92NHJfHB5LPE4qswvep-25" value="-&amp;nbsp;Profile: Profile" style="text;strokeColor=none;fillColor=none;align=left;verticalAlign=top;spacingLeft=4;spacingRight=4;overflow=hidden;rotatable=0;points=[[0,0.5],[1,0.5]];portConstraint=eastwest;whiteSpace=wrap;html=1;labelBackgroundColor=none;" vertex="1" parent="T92NHJfHB5LPE4qswvep-23">
          <mxGeometry y="52" width="293" height="26" as="geometry" />
        </mxCell>
        <mxCell id="T92NHJfHB5LPE4qswvep-26" value="" style="line;strokeWidth=1;fillColor=none;align=left;verticalAlign=middle;spacingTop=-1;spacingLeft=3;spacingRight=3;rotatable=0;labelPosition=right;points=[];portConstraint=eastwest;strokeColor=inherit;" vertex="1" parent="T92NHJfHB5LPE4qswvep-23">
          <mxGeometry y="78" width="293" height="8" as="geometry" />
        </mxCell>
        <mxCell id="T92NHJfHB5LPE4qswvep-27" value="+ Login(email:String, password:String)" style="text;strokeColor=none;fillColor=none;align=left;verticalAlign=top;spacingLeft=4;spacingRight=4;overflow=hidden;rotatable=0;points=[[0,0.5],[1,0.5]];portConstraint=eastwest;whiteSpace=wrap;html=1;" vertex="1" parent="T92NHJfHB5LPE4qswvep-23">
          <mxGeometry y="86" width="293" height="26" as="geometry" />
        </mxCell>
        <mxCell id="T92NHJfHB5LPE4qswvep-28" value="+ Register(email:String, password:String)" style="text;strokeColor=none;fillColor=none;align=left;verticalAlign=top;spacingLeft=4;spacingRight=4;overflow=hidden;rotatable=0;points=[[0,0.5],[1,0.5]];portConstraint=eastwest;whiteSpace=wrap;html=1;" vertex="1" parent="T92NHJfHB5LPE4qswvep-23">
          <mxGeometry y="112" width="293" height="26" as="geometry" />
        </mxCell>
        <mxCell id="T92NHJfHB5LPE4qswvep-29" value="+&amp;nbsp;ResetPassword(email:String, password:String)" style="text;strokeColor=none;fillColor=none;align=left;verticalAlign=top;spacingLeft=4;spacingRight=4;overflow=hidden;rotatable=0;points=[[0,0.5],[1,0.5]];portConstraint=eastwest;whiteSpace=wrap;html=1;" vertex="1" parent="T92NHJfHB5LPE4qswvep-23">
          <mxGeometry y="138" width="293" height="26" as="geometry" />
        </mxCell>
        <mxCell id="T92NHJfHB5LPE4qswvep-30" value="Manager" style="swimlane;fontStyle=0;align=center;verticalAlign=top;childLayout=stackLayout;horizontal=1;startSize=26;horizontalStack=0;resizeParent=1;resizeLast=0;collapsible=1;marginBottom=0;rounded=0;shadow=0;strokeWidth=1;" vertex="1" parent="1">
          <mxGeometry x="319" y="-561" width="473" height="216" as="geometry">
            <mxRectangle x="340" y="380" width="170" height="26" as="alternateBounds" />
          </mxGeometry>
        </mxCell>
        <mxCell id="T92NHJfHB5LPE4qswvep-31" value="-&lt;span style=&quot;background-color: rgb(255, 255, 255);&quot;&gt;&amp;nbsp;User: User&lt;/span&gt;" style="text;strokeColor=none;fillColor=none;align=left;verticalAlign=top;spacingLeft=4;spacingRight=4;overflow=hidden;rotatable=0;points=[[0,0.5],[1,0.5]];portConstraint=eastwest;whiteSpace=wrap;html=1;" vertex="1" parent="T92NHJfHB5LPE4qswvep-30">
          <mxGeometry y="26" width="473" height="26" as="geometry" />
        </mxCell>
        <mxCell id="T92NHJfHB5LPE4qswvep-32" value="-&amp;nbsp;A&lt;span style=&quot;text-align: center; text-wrap: nowrap;&quot;&gt;ctive&lt;/span&gt;:&amp;nbsp;&lt;span style=&quot;text-align: center; text-wrap: nowrap;&quot;&gt;Bloean&lt;/span&gt;" style="text;strokeColor=none;fillColor=none;align=left;verticalAlign=top;spacingLeft=4;spacingRight=4;overflow=hidden;rotatable=0;points=[[0,0.5],[1,0.5]];portConstraint=eastwest;whiteSpace=wrap;html=1;" vertex="1" parent="T92NHJfHB5LPE4qswvep-30">
          <mxGeometry y="52" width="473" height="26" as="geometry" />
        </mxCell>
        <mxCell id="T92NHJfHB5LPE4qswvep-33" value="-&amp;nbsp;Org: Org" style="text;strokeColor=none;fillColor=none;align=left;verticalAlign=top;spacingLeft=4;spacingRight=4;overflow=hidden;rotatable=0;points=[[0,0.5],[1,0.5]];portConstraint=eastwest;whiteSpace=wrap;html=1;" vertex="1" parent="T92NHJfHB5LPE4qswvep-30">
          <mxGeometry y="78" width="473" height="26" as="geometry" />
        </mxCell>
        <mxCell id="T92NHJfHB5LPE4qswvep-34" value="" style="line;strokeWidth=1;fillColor=none;align=left;verticalAlign=middle;spacingTop=-1;spacingLeft=3;spacingRight=3;rotatable=0;labelPosition=right;points=[];portConstraint=eastwest;strokeColor=inherit;" vertex="1" parent="T92NHJfHB5LPE4qswvep-30">
          <mxGeometry y="104" width="473" height="8" as="geometry" />
        </mxCell>
        <mxCell id="T92NHJfHB5LPE4qswvep-35" value="+&amp;nbsp;ToggleActive:()" style="text;strokeColor=none;fillColor=none;align=left;verticalAlign=top;spacingLeft=4;spacingRight=4;overflow=hidden;rotatable=0;points=[[0,0.5],[1,0.5]];portConstraint=eastwest;whiteSpace=wrap;html=1;" vertex="1" parent="T92NHJfHB5LPE4qswvep-30">
          <mxGeometry y="112" width="473" height="26" as="geometry" />
        </mxCell>
        <mxCell id="T92NHJfHB5LPE4qswvep-36" value="+ ListAll()" style="text;strokeColor=none;fillColor=none;align=left;verticalAlign=top;spacingLeft=4;spacingRight=4;overflow=hidden;rotatable=0;points=[[0,0.5],[1,0.5]];portConstraint=eastwest;whiteSpace=wrap;html=1;" vertex="1" parent="T92NHJfHB5LPE4qswvep-30">
          <mxGeometry y="138" width="473" height="26" as="geometry" />
        </mxCell>
        <mxCell id="T92NHJfHB5LPE4qswvep-37" value="+ requestPasswordReset(email:String): String" style="text;strokeColor=none;fillColor=none;align=left;verticalAlign=top;spacingLeft=4;spacingRight=4;overflow=hidden;rotatable=0;points=[[0,0.5],[1,0.5]];portConstraint=eastwest;whiteSpace=wrap;html=1;" vertex="1" parent="T92NHJfHB5LPE4qswvep-30">
          <mxGeometry y="164" width="473" height="26" as="geometry" />
        </mxCell>
        <mxCell id="T92NHJfHB5LPE4qswvep-38" value="+ resetPassword(password:String, passwordConfirmation:String, verifyCode:String)" style="text;strokeColor=none;fillColor=none;align=left;verticalAlign=top;spacingLeft=4;spacingRight=4;overflow=hidden;rotatable=0;points=[[0,0.5],[1,0.5]];portConstraint=eastwest;whiteSpace=wrap;html=1;" vertex="1" parent="T92NHJfHB5LPE4qswvep-30">
          <mxGeometry y="190" width="473" height="26" as="geometry" />
        </mxCell>
        <mxCell id="T92NHJfHB5LPE4qswvep-39" style="edgeStyle=orthogonalEdgeStyle;rounded=0;orthogonalLoop=1;jettySize=auto;html=1;entryX=0;entryY=0.5;entryDx=0;entryDy=0;endArrow=blockThin;endFill=1;strokeWidth=1;" edge="1" parent="1">
          <mxGeometry relative="1" as="geometry">
            <mxPoint x="680" y="487" as="sourcePoint" />
            <mxPoint x="622" y="487" as="targetPoint" />
          </mxGeometry>
        </mxCell>
        <mxCell id="T92NHJfHB5LPE4qswvep-43" style="edgeStyle=orthogonalEdgeStyle;rounded=0;orthogonalLoop=1;jettySize=auto;html=1;" edge="1" parent="1" source="T92NHJfHB5LPE4qswvep-40" target="T92NHJfHB5LPE4qswvep-42">
          <mxGeometry relative="1" as="geometry" />
        </mxCell>
        <mxCell id="T92NHJfHB5LPE4qswvep-40" value="&lt;font style=&quot;vertical-align: inherit;&quot;&gt;&lt;font style=&quot;vertical-align: inherit;&quot;&gt;insere a nova senha e a confirmação&lt;/font&gt;&lt;/font&gt;" style="rounded=1;whiteSpace=wrap;html=1;" vertex="1" parent="1">
          <mxGeometry x="769" y="688" width="120" height="60" as="geometry" />
        </mxCell>
        <mxCell id="T92NHJfHB5LPE4qswvep-42" value="" style="ellipse;html=1;shape=endState;fillColor=strokeColor;" vertex="1" parent="1">
          <mxGeometry x="920" y="703" width="30" height="30" as="geometry" />
        </mxCell>
      </root>
    </mxGraphModel>
  </diagram>
</mxfile>
